<?xml version="1.0" encoding="UTF-8" standalone="no"?>
<!-- Generator: Adobe Illustrator 21.1.0, SVG Export Plug-In . SVG Version: 6.00 Build 0)  -->

<svg
   xmlns:dc="http://purl.org/dc/elements/1.1/"
   xmlns:cc="http://creativecommons.org/ns#"
   xmlns:rdf="http://www.w3.org/1999/02/22-rdf-syntax-ns#"
   xmlns:svg="http://www.w3.org/2000/svg"
   xmlns="http://www.w3.org/2000/svg"
   xmlns:sodipodi="http://sodipodi.sourceforge.net/DTD/sodipodi-0.dtd"
   xmlns:inkscape="http://www.inkscape.org/namespaces/inkscape"
   version="1.1"
   id="Ebene_1"
   x="0px"
   y="0px"
   viewBox="0 0 16 16"
   style="enable-background:new 0 0 16 16;"
   xml:space="preserve"
   sodipodi:docname="string_manipulation_multi_column-icon.svg"
   inkscape:version="0.92.3 (2405546, 2018-03-11)"
   inkscape:export-filename="C:\Users\knime\workspace\git\nightly\knime-javasnippet\org.knime.jsnippets\src\org\knime\base\node\preproc\stringmanipulation\multicolumn\string_manipulation_multi_column.png"
   inkscape:export-xdpi="96"
   inkscape:export-ydpi="96"><metadata
   id="metadata32"><rdf:RDF><cc:Work
       rdf:about=""><dc:format>image/svg+xml</dc:format><dc:type
         rdf:resource="http://purl.org/dc/dcmitype/StillImage" /><dc:title /></cc:Work></rdf:RDF></metadata><defs
   id="defs30" /><sodipodi:namedview
   pagecolor="#ffffff"
   bordercolor="#666666"
   borderopacity="1"
   objecttolerance="10"
   gridtolerance="10"
   guidetolerance="10"
   inkscape:pageopacity="0"
   inkscape:pageshadow="2"
   inkscape:window-width="1278"
   inkscape:window-height="1368"
   id="namedview28"
   showgrid="false"
   inkscape:zoom="14.75"
   inkscape:cx="-3.0169492"
   inkscape:cy="8"
   inkscape:window-x="1273"
   inkscape:window-y="0"
   inkscape:window-maximized="0"
   inkscape:current-layer="Ebene_1" />
<style
   type="text/css"
   id="style2">
	.st0{fill:#FFFFFF;}
</style>
<g
   id="XMLID_8_">
	<rect
   id="XMLID_12_"
   x="11.8"
   y="0.7"
   class="st0"
   width="4.2"
   height="14.4" />
	<path
   id="XMLID_9_"
   d="M11.8,13.8V16H16v-2.2l-0.7,0V15h-2.8v-1.2L11.8,13.8z M16,2.4V0h-4.2v2.4l0.7,0V1h2.8v1.4L16,2.4z" />
</g>
<g
   id="XMLID_2_">
	<rect
   id="XMLID_7_"
   x="5.9"
   y="0.7"
   class="st0"
   width="4.2"
   height="14.4" />
	<path
   id="XMLID_3_"
   d="M5.9,13.8V16h4.2v-2.2l-0.7,0V15H6.6v-1.2L5.9,13.8z M10.1,2.4V0H5.9v2.4l0.7,0V1h2.8v1.4L10.1,2.4z" />
</g>
<g
   id="XMLID_278_">
	<rect
   id="XMLID_282_"
   y="0.7"
   class="st0"
   width="4.2"
   height="14.4" />
	<path
   id="XMLID_279_"
   d="M0,13.8V16h4.2v-2.2l-0.7,0V15H0.7v-1.2L0,13.8z M4.2,2.4V0H0v2.4l0.7,0V1h2.8v1.4L4.2,2.4z" />
</g><g
   transform="translate(0,0.2)"
   id="XMLID_1_"><path
     inkscape:connector-curvature="0"
     id="XMLID_3_-4"
     d="M 0,6.4 H 0.8 V 6 C 0.8,5.6 0.8,5.2 0.9,5 1,4.5 1.3,4.2 2.4,4.2 c 0.4,0 0.8,0.1 1.2,0.2 l -0.2,1 C 3.2,5.3 3,5.3 2.8,5.3 2.6,5.3 2.5,5.3 2.4,5.4 2.2,5.5 2.2,5.7 2.2,6 v 0.4 h 1 v 1.1 h -1 v 4.2 H 0.8 V 7.5 H 0 Z" /><path
     inkscape:connector-curvature="0"
     id="XMLID_5_"
     d="m 6.8,12.8 h -1 C 5.3,12 4.9,11.2 4.6,10.4 4.4,9.6 4.2,8.8 4.2,8 4.2,7 4.4,6.1 4.7,5.3 5,4.5 5.4,3.8 5.8,3.2 h 1 C 6.3,4.2 6,5.1 5.8,5.8 5.7,6.5 5.6,7.2 5.6,8 c 0,0.5 0.1,1.1 0.2,1.7 0.1,0.6 0.2,1.1 0.4,1.6 0.1,0.4 0.3,0.9 0.6,1.5 z" /><path
     inkscape:connector-curvature="0"
     id="XMLID_7_-1"
     d="M 7.1,9.3 8.5,9.2 c 0.1,0.4 0.3,0.8 0.5,1 0.3,0.2 0.6,0.3 1.1,0.3 0.5,0 0.8,-0.1 1.1,-0.3 C 11.4,10 11.6,9.8 11.6,9.5 11.6,9.3 11.5,9.2 11.4,9.1 11.3,9 11.1,8.9 10.9,8.8 10.7,8.7 10.3,8.6 9.7,8.5 8.9,8.3 8.3,8 8,7.7 7.6,7.3 7.3,6.8 7.3,6.3 7.3,5.9 7.4,5.6 7.6,5.3 7.8,5 8.6,4.1 10,4.2 c 0.9,0 1.6,0.2 2.1,0.6 0.5,0.4 0.7,0.9 0.7,1.6 L 11.3,6.5 C 11.2,6.1 11.1,5.9 10.9,5.7 10.7,5.5 10.4,5.4 10,5.4 9.3,5.4 8.9,5.5 8.7,6.2 c 0,0.2 0.1,0.3 0.2,0.4 0.2,0.2 0.6,0.3 1.4,0.5 0.8,0.2 1.3,0.3 1.6,0.5 0.3,0.2 0.6,0.4 0.8,0.7 0.2,0.4 0.3,0.8 0.3,1.2 0,0.4 -0.1,0.8 -0.3,1.2 -0.2,0.4 -0.6,0.6 -1,0.8 -0.4,0.2 -1,0.3 -1.6,0.3 C 9.2,11.8 8.5,11.6 8,11.2 7.5,10.7 7.2,10.1 7.1,9.3 Z" /><path
     inkscape:connector-curvature="0"
     id="XMLID_9_-3"
     d="m 14.1,11.4 c 0.1,-0.3 0.2,-0.7 0.3,-1.1 C 14.5,9.9 14.6,9.5 14.6,9.1 14.6,8.7 14.7,8.3 14.7,8 14.7,7.2 14.6,6.5 14.4,5.7 14.2,5 13.9,4.1 13.5,3.1 h 1 c 0.5,0.7 0.9,1.5 1.2,2.3 0.2,0.8 0.3,1.7 0.3,2.5 0,0.7 -0.1,1.4 -0.3,2.2 -0.2,0.9 -0.7,1.8 -1.2,2.6 h -1 c 0,0 0.5,-0.9 0.6,-1.3 z" /></g>

</svg>